<svg xmlns="http://www.w3.org/2000/svg" width="38" height="38" viewBox="0 0 38 38" fill="none">
    <path d="M30.3168 11.6329L25.4479 16.2046L30.0778 28.9369L26.6054 32.4093L19.6883 22.2844L16.1881 25.4645V28.9369L12.7156 32.4093L10.6622 26.3537L4.61328 24.307L8.08572 20.8345H11.5582L15.0306 17.3621L4.61328 10.4172L8.08572 6.94478L20.818 11.5747L25.406 6.7221L25.3075 6.80436C25.6298 6.48133 26.0126 6.225 26.4341 6.05003C26.8555 5.87505 27.3073 5.78486 27.7637 5.78461C28.22 5.78436 28.6719 5.87405 29.0935 6.04857C29.5152 6.22308 29.8983 6.47899 30.221 6.80166C30.5436 7.12433 30.7995 7.50744 30.9741 7.92908C31.1486 8.35072 31.2383 8.80263 31.238 9.25896C31.2378 9.71528 31.1476 10.1671 30.9726 10.5885C30.7976 11.01 30.5413 11.3928 30.2183 11.7151L30.3168 11.6329Z" stroke="#BCA4FF" stroke-width="2.31496" stroke-linecap="round" stroke-linejoin="round"/>
  </svg>