<svg xmlns="http://www.w3.org/2000/svg" width="38" height="38" viewBox="0 0 38 38" fill="none">
  <path d="M30.0945 11.5747C30.0945 10.9608 29.8506 10.3719 29.4165 9.9378C28.9824 9.50366 28.3935 9.25977 27.7796 9.25977H21.9922L30.0945 23.1495" stroke="#BCA4FF" stroke-width="2.31496" stroke-linecap="round" stroke-linejoin="round"/>
  <path d="M30.094 28.9369C33.2903 28.9369 35.8814 26.3458 35.8814 23.1495C35.8814 19.9532 33.2903 17.3621 30.094 17.3621C26.8977 17.3621 24.3066 19.9532 24.3066 23.1495C24.3066 26.3458 26.8977 28.9369 30.094 28.9369Z" stroke="#BCA4FF" stroke-width="2.31496" stroke-linecap="round" stroke-linejoin="round"/>
  <path d="M6.9456 28.9369C10.1419 28.9369 12.733 26.3458 12.733 23.1495C12.733 19.9532 10.1419 17.3621 6.9456 17.3621C3.74931 17.3621 1.1582 19.9532 1.1582 23.1495C1.1582 26.3458 3.74931 28.9369 6.9456 28.9369Z" stroke="#BCA4FF" stroke-width="2.31496" stroke-linecap="round" stroke-linejoin="round"/>
  <path d="M6.94531 9.25977H10.9965L19.0988 23.1495" stroke="#BCA4FF" stroke-width="2.31496" stroke-linecap="round" stroke-linejoin="round"/>
  <path d="M24.6095 13.8897H13.6973L6.94531 23.1495" stroke="#BCA4FF" stroke-width="2.31496" stroke-linecap="round" stroke-linejoin="round"/>
</svg>