<svg xmlns="http://www.w3.org/2000/svg" width="38" height="38" viewBox="0 0 38 38" fill="none">
    <path d="M18.5196 32.4095C26.1907 32.4095 32.4094 26.1908 32.4094 18.5197C32.4094 10.8486 26.1907 4.62994 18.5196 4.62994C10.8485 4.62994 4.62988 10.8486 4.62988 18.5197C4.62988 26.1908 10.8485 32.4095 18.5196 32.4095Z" stroke="#BCA4FF" stroke-width="2.31496" stroke-linecap="round" stroke-linejoin="round"/>
    <path d="M7.17383 26.5343L8.86343 25.5143C9.03316 25.4119 9.17372 25.2675 9.27165 25.0952C9.36958 24.9228 9.42159 24.7282 9.42271 24.5299L9.45205 19.3026C9.45327 19.0842 9.51627 18.8706 9.63375 18.6865L12.5047 14.1871C12.5895 14.0541 12.7007 13.9399 12.8313 13.8514C12.9619 13.7629 13.1092 13.7021 13.2642 13.6726C13.4192 13.6431 13.5785 13.6457 13.7325 13.68C13.8865 13.7144 14.0318 13.7798 14.1595 13.8724L17.0034 15.9328C17.2443 16.1073 17.5431 16.1824 17.8379 16.1425L22.3926 15.5256C22.672 15.4878 22.928 15.3493 23.1125 15.1361L26.3183 11.4321C26.5129 11.2072 26.6135 10.916 26.5992 10.619L26.4302 7.10266" stroke="#BCA4FF" stroke-width="2.31496" stroke-linecap="round" stroke-linejoin="round"/>
    <path d="M27.0651 29.4698L25.5124 27.914C25.3672 27.7685 25.1858 27.6643 24.9869 27.6121L21.8822 26.7973C21.6067 26.725 21.3675 26.5536 21.2104 26.3159C21.0533 26.0782 20.9894 25.791 21.0309 25.5091L21.3759 23.1658C21.4051 22.968 21.4849 22.7811 21.6078 22.6233C21.7306 22.4656 21.8922 22.3423 22.0768 22.2656L26.4826 20.4344C26.6861 20.3498 26.9095 20.325 27.1266 20.3631C27.3436 20.4011 27.5454 20.5003 27.708 20.6491L31.3098 23.9432" stroke="#BCA4FF" stroke-width="2.31496" stroke-linecap="round" stroke-linejoin="round"/>
  </svg>